<?xml version="1.0" encoding="utf-8"?>
<!-- Generator: Adobe Illustrator 24.3.0, SVG Export Plug-In . SVG Version: 6.00 Build 0)  -->
<svg version="1.1" id="Layer_1" xmlns="http://www.w3.org/2000/svg" xmlns:xlink="http://www.w3.org/1999/xlink" x="0px" y="0px"
	 viewBox="0 0 132 31" style="enable-background:new 0 0 132 31;" xml:space="preserve">
<style type="text/css">
	.st0{fill:#18232F;}
	.st1{font-family:'HamburgerFontBFW01-Regular';}
	.st2{font-size:16.3885px;}
</style>
<path d="M32.7,1.8c-2,0.4-4.5,1.2-7.4,2.4c-1.9,0.8-4,1.4-5.4,1.5c-1.3,0.1-2.5,0.4-2.7,0.6c-0.7,0.7,0,1.4,1.3,1.5
	c1.1,0.1,1.3,0.2,1.4,1s0,0.9-1.2,1.1c-0.7,0.1-2,0.2-2.9,0.2c-1.6,0-3,0.7-2.6,1.3c0.1,0.2,1,0.4,2,0.5c1.1,0.1,2,0.4,2.4,0.9
	l0.7,0.7l-0.9,0.6c-0.8,0.5-1.9,0.7-5.6,0.8c-4,0.1-4.7,0.2-4.8,0.8c-0.1,0.7,0.7,0.8,6.2,1.1c3.4,0.2,5.4,0.8,6.4,2
	c1.2,1.4-1.3,3.3-4.5,3.3c-2,0-2.5,0.2-2.2,1.1c0.2,0.4,1,0.5,3.9,0.5c4.5,0,6.4,0.3,6.2,1.1c-0.1,0.4-0.7,0.7-2,1
	c-1.3,0.2-1.9,0.5-2,0.9c-0.1,0.5,0.3,0.6,3.2,0.6c3.1,0,5.7,0.4,9.6,1.6c2.3,0.7,3.6,0.6,5.8-0.2c2.1-0.8,3.7-2.2,3.7-3.2
	c0-1.2-1.2-2.7-3.2-4.1l-1.9-1.3l-1.6,1.3c-3,2.5-3.6,2.7-5.3,1.3c-1.2-1-1.4-2.2-0.5-2.9c0.3-0.2,0.5-0.6,0.5-0.9
	c0-0.2,0.2-0.6,0.5-0.7c0.2-0.1,0.7-0.6,0.9-1.1c0.5-0.9,0.5-0.9-1.9-3.4c-1.9-2-2.1-3.6-0.4-5C29,8.2,29.7,7.9,30,8
	c0.3,0.1,0.6,0.2,0.8,0.2c0.3,0,1.2,0.8,3.4,2.9l1.1,1.1l1.4-1.6c1.5-1.6,2.5-2.4,3.5-2.4c0.9,0,2.6,1.7,2.6,2.6
	c0,0.8-0.9,2.7-1.6,3.5c-1.3,1.4-1.2,1.8,0.4,3.4c1.6,1.5,3.3,2.1,4.5,1.7c1.4-0.5,3.9-5.2,3.9-7.6c0-2.6-2.8-6.3-6.2-8.1
	C40.7,2,35.7,1.2,32.7,1.8z"/>
<path class="st0" d="M12.8,6.1c-0.7,0.9-0.2,1.7,0.9,1.5c0.8-0.1,1-0.3,1-1C14.7,5.7,13.5,5.3,12.8,6.1z"/>
<path class="st0" d="M13,19.4c-0.1,0.2-0.1,0.5,0.1,0.8c0.5,0.5,2.2,0,2-0.5C14.9,19.1,13.3,18.9,13,19.4z"/>
<path class="st0" d="M9.1,22.6c-0.2,0.6,0.1,1.2,0.7,1.2c0.5,0,1-0.9,0.7-1.4C10.2,22,9.3,22.1,9.1,22.6z"/>
<text transform="matrix(1 0 0 1 53.9867 22.1684)" class="st1 st2">QuitNow</text>
</svg>
